<svg id="Layer_1" data-name="Layer 1" xmlns="http://www.w3.org/2000/svg" xmlns:xlink="http://www.w3.org/1999/xlink" viewBox="0 0 150 150"><defs><style>.cls-1{fill:#ff4500;}.cls-2{fill:#fff;}</style><symbol id="icon_2" data-name="icon 2" viewBox="0 0 48 48"><circle class="cls-1" cx="24" cy="24" r="24"/><path class="cls-2" d="M40,24a3.5,3.5,0,0,0-5.927-2.518,17.139,17.139,0,0,0-9.36-2.969l1.594-7.5,5.209,1.108a2.5,2.5,0,1,0,.256-1.224L25.951,9.659a.625.625,0,0,0-.741.481l-1.78,8.37a17.189,17.189,0,0,0-9.5,2.966,3.5,3.5,0,1,0-3.852,5.715A6.9,6.9,0,0,0,10,28.25C10,33.635,16.264,38,24,38s14-4.365,14-9.75a6.942,6.942,0,0,0-.082-1.052A3.5,3.5,0,0,0,40,24ZM16,26.5A2.5,2.5,0,1,1,18.5,29,2.5,2.5,0,0,1,16,26.5Zm13.94,6.606c-1.706,1.7-4.976,1.837-5.937,1.837s-4.232-.133-5.936-1.837a.648.648,0,1,1,.917-.916c1.075,1.075,3.376,1.457,5.019,1.457s3.944-.382,5.022-1.458a.648.648,0,1,1,.915.917ZM29.5,29A2.5,2.5,0,1,1,32,26.5,2.5,2.5,0,0,1,29.5,29Z"/></symbol></defs><use width="48" height="48" transform="translate(1.376 1.188) scale(3.068)" xlink:href="#icon_2"/></svg>